%FSLAX45Y45*%
G04 Gerber Fmt 4.5, Leading zero omitted, Abs format (unit mm)*
G04 Created by KiCad (PCBNEW (6.0.4)) date 2023-05-26 11:35:15*
%MOMM*%
%LPD*%
G01*
G04 APERTURE LIST*
%TA.AperFunction,Profile*%
%ADD10C,0.100000*%
%TD*%
%ADD11C,0.200000*%
%ADD12C,0.070000*%
%ADD13C,0.080000*%
%ADD14C,0.100000*%
%ADD15C,0.110000*%
%ADD16C,0.150000*%
%ADD17C,0.350000*%
G04 APERTURE END LIST*
D10*
X19558000Y-10541000D02*
X19558000Y-5207000D01*
X19558000Y-10541000D02*
X25908000Y-10541000D01*
X25908000Y-5207000D02*
X25908000Y-10541000D01*
X19558000Y-5207000D02*
X25908000Y-5207000D01*
D11*
D12*
X20539000Y-7839000D02*
X20609000Y-7909000D01*
X20609000Y-7839000D02*
X20539000Y-7909000D01*
X21555000Y-5997500D02*
X21625000Y-6067500D01*
X21625000Y-5997500D02*
X21555000Y-6067500D01*
X22190000Y-8347000D02*
X22260000Y-8417000D01*
X22260000Y-8347000D02*
X22190000Y-8417000D01*
X24031500Y-8855000D02*
X24101500Y-8925000D01*
X24101500Y-8855000D02*
X24031500Y-8925000D01*
D13*
X21757000Y-6477000D02*
G75*
G03*
X21757000Y-6477000I-40000J0D01*
G01*
X21757000Y-8699500D02*
G75*
G03*
X21757000Y-8699500I-40000J0D01*
G01*
X22257000Y-8699500D02*
G75*
G03*
X22257000Y-8699500I-40000J0D01*
G01*
X22773000Y-6477000D02*
G75*
G03*
X22773000Y-6477000I-40000J0D01*
G01*
X24297000Y-7112000D02*
G75*
G03*
X24297000Y-7112000I-40000J0D01*
G01*
X24297000Y-8128000D02*
G75*
G03*
X24297000Y-8128000I-40000J0D01*
G01*
X24678000Y-8132000D02*
G75*
G03*
X24678000Y-8132000I-40000J0D01*
G01*
X24678000Y-8632000D02*
G75*
G03*
X24678000Y-8632000I-40000J0D01*
G01*
D14*
X20612500Y-5385600D02*
X20612500Y-5485600D01*
X20562500Y-5435600D02*
X20662500Y-5435600D01*
X20866500Y-5385600D02*
X20866500Y-5485600D01*
X20816500Y-5435600D02*
X20916500Y-5435600D01*
X21120500Y-5385600D02*
X21120500Y-5485600D01*
X21070500Y-5435600D02*
X21170500Y-5435600D01*
X21374500Y-5385600D02*
X21374500Y-5485600D01*
X21324500Y-5435600D02*
X21424500Y-5435600D01*
X21526500Y-10211600D02*
X21526500Y-10311600D01*
X21476500Y-10261600D02*
X21576500Y-10261600D01*
X21628500Y-5385600D02*
X21628500Y-5485600D01*
X21578500Y-5435600D02*
X21678500Y-5435600D01*
X21717000Y-9111232D02*
X21717000Y-9211232D01*
X21667000Y-9161232D02*
X21767000Y-9161232D01*
X21717000Y-9611232D02*
X21717000Y-9711232D01*
X21667000Y-9661232D02*
X21767000Y-9661232D01*
X21780500Y-10211600D02*
X21780500Y-10311600D01*
X21730500Y-10261600D02*
X21830500Y-10261600D01*
X21882500Y-5385600D02*
X21882500Y-5485600D01*
X21832500Y-5435600D02*
X21932500Y-5435600D01*
X22034500Y-10211600D02*
X22034500Y-10311600D01*
X21984500Y-10261600D02*
X22084500Y-10261600D01*
X22136500Y-5385600D02*
X22136500Y-5485600D01*
X22086500Y-5435600D02*
X22186500Y-5435600D01*
X22288500Y-10211600D02*
X22288500Y-10311600D01*
X22238500Y-10261600D02*
X22338500Y-10261600D01*
X22390500Y-5385600D02*
X22390500Y-5485600D01*
X22340500Y-5435600D02*
X22440500Y-5435600D01*
X22542500Y-10211600D02*
X22542500Y-10311600D01*
X22492500Y-10261600D02*
X22592500Y-10261600D01*
X22644500Y-5385600D02*
X22644500Y-5485600D01*
X22594500Y-5435600D02*
X22694500Y-5435600D01*
X22796500Y-10211600D02*
X22796500Y-10311600D01*
X22746500Y-10261600D02*
X22846500Y-10261600D01*
X22898500Y-5385600D02*
X22898500Y-5485600D01*
X22848500Y-5435600D02*
X22948500Y-5435600D01*
X23050500Y-10211600D02*
X23050500Y-10311600D01*
X23000500Y-10261600D02*
X23100500Y-10261600D01*
X23304500Y-5385600D02*
X23304500Y-5485600D01*
X23254500Y-5435600D02*
X23354500Y-5435600D01*
X23304500Y-10211600D02*
X23304500Y-10311600D01*
X23254500Y-10261600D02*
X23354500Y-10261600D01*
X23558500Y-5385600D02*
X23558500Y-5485600D01*
X23508500Y-5435600D02*
X23608500Y-5435600D01*
X23715000Y-5919000D02*
X23715000Y-6019000D01*
X23665000Y-5969000D02*
X23765000Y-5969000D01*
X23715000Y-6173000D02*
X23715000Y-6273000D01*
X23665000Y-6223000D02*
X23765000Y-6223000D01*
X23715000Y-6427000D02*
X23715000Y-6527000D01*
X23665000Y-6477000D02*
X23765000Y-6477000D01*
X23812500Y-5385600D02*
X23812500Y-5485600D01*
X23762500Y-5435600D02*
X23862500Y-5435600D01*
X23812500Y-10211600D02*
X23812500Y-10311600D01*
X23762500Y-10261600D02*
X23862500Y-10261600D01*
X24066500Y-5385600D02*
X24066500Y-5485600D01*
X24016500Y-5435600D02*
X24116500Y-5435600D01*
X24066500Y-10211600D02*
X24066500Y-10311600D01*
X24016500Y-10261600D02*
X24116500Y-10261600D01*
X24320500Y-5385600D02*
X24320500Y-5485600D01*
X24270500Y-5435600D02*
X24370500Y-5435600D01*
X24320500Y-10211600D02*
X24320500Y-10311600D01*
X24270500Y-10261600D02*
X24370500Y-10261600D01*
X24574500Y-5385600D02*
X24574500Y-5485600D01*
X24524500Y-5435600D02*
X24624500Y-5435600D01*
X24574500Y-10211600D02*
X24574500Y-10311600D01*
X24524500Y-10261600D02*
X24624500Y-10261600D01*
X24828500Y-5385600D02*
X24828500Y-5485600D01*
X24778500Y-5435600D02*
X24878500Y-5435600D01*
X24828500Y-10211600D02*
X24828500Y-10311600D01*
X24778500Y-10261600D02*
X24878500Y-10261600D01*
X25082500Y-5385600D02*
X25082500Y-5485600D01*
X25032500Y-5435600D02*
X25132500Y-5435600D01*
X25082500Y-10211600D02*
X25082500Y-10311600D01*
X25032500Y-10261600D02*
X25132500Y-10261600D01*
X25144500Y-7059500D02*
X25144500Y-7159500D01*
X25094500Y-7109500D02*
X25194500Y-7109500D01*
X25144500Y-7313500D02*
X25144500Y-7413500D01*
X25094500Y-7363500D02*
X25194500Y-7363500D01*
X25144500Y-7567500D02*
X25144500Y-7667500D01*
X25094500Y-7617500D02*
X25194500Y-7617500D01*
X25144500Y-7821500D02*
X25144500Y-7921500D01*
X25094500Y-7871500D02*
X25194500Y-7871500D01*
D15*
X21755891Y-7277891D02*
X21755891Y-7200109D01*
X21678109Y-7200109D01*
X21678109Y-7277891D01*
X21755891Y-7277891D01*
X22771891Y-7277891D02*
X22771891Y-7200109D01*
X22694109Y-7200109D01*
X22694109Y-7277891D01*
X22771891Y-7277891D01*
D16*
X20320000Y-6679000D02*
X20395000Y-6604000D01*
X20320000Y-6529000D01*
X20245000Y-6604000D01*
X20320000Y-6679000D01*
X20320000Y-7187000D02*
X20395000Y-7112000D01*
X20320000Y-7037000D01*
X20245000Y-7112000D01*
X20320000Y-7187000D01*
X20320000Y-8457000D02*
X20395000Y-8382000D01*
X20320000Y-8307000D01*
X20245000Y-8382000D01*
X20320000Y-8457000D01*
X20320000Y-8965000D02*
X20395000Y-8890000D01*
X20320000Y-8815000D01*
X20245000Y-8890000D01*
X20320000Y-8965000D01*
D17*
X25206000Y-6048000D02*
X25556000Y-6398000D01*
X25556000Y-6048000D02*
X25206000Y-6398000D01*
X25556000Y-6223000D02*
G75*
G03*
X25556000Y-6223000I-175000J0D01*
G01*
D11*
X19810619Y-10856476D02*
X19810619Y-10656476D01*
X19858238Y-10656476D01*
X19886810Y-10666000D01*
X19905857Y-10685048D01*
X19915381Y-10704095D01*
X19924905Y-10742190D01*
X19924905Y-10770762D01*
X19915381Y-10808857D01*
X19905857Y-10827905D01*
X19886810Y-10846952D01*
X19858238Y-10856476D01*
X19810619Y-10856476D01*
X20010619Y-10856476D02*
X20010619Y-10723143D01*
X20010619Y-10761238D02*
X20020143Y-10742190D01*
X20029667Y-10732667D01*
X20048714Y-10723143D01*
X20067762Y-10723143D01*
X20134429Y-10856476D02*
X20134429Y-10723143D01*
X20134429Y-10656476D02*
X20124905Y-10666000D01*
X20134429Y-10675524D01*
X20143952Y-10666000D01*
X20134429Y-10656476D01*
X20134429Y-10675524D01*
X20258238Y-10856476D02*
X20239190Y-10846952D01*
X20229667Y-10827905D01*
X20229667Y-10656476D01*
X20363000Y-10856476D02*
X20343952Y-10846952D01*
X20334429Y-10827905D01*
X20334429Y-10656476D01*
X20591571Y-10856476D02*
X20591571Y-10656476D01*
X20658238Y-10799333D01*
X20724905Y-10656476D01*
X20724905Y-10856476D01*
X20905857Y-10856476D02*
X20905857Y-10751714D01*
X20896333Y-10732667D01*
X20877286Y-10723143D01*
X20839190Y-10723143D01*
X20820143Y-10732667D01*
X20905857Y-10846952D02*
X20886810Y-10856476D01*
X20839190Y-10856476D01*
X20820143Y-10846952D01*
X20810619Y-10827905D01*
X20810619Y-10808857D01*
X20820143Y-10789810D01*
X20839190Y-10780286D01*
X20886810Y-10780286D01*
X20905857Y-10770762D01*
X21001095Y-10723143D02*
X21001095Y-10923143D01*
X21001095Y-10732667D02*
X21020143Y-10723143D01*
X21058238Y-10723143D01*
X21077286Y-10732667D01*
X21086810Y-10742190D01*
X21096333Y-10761238D01*
X21096333Y-10818381D01*
X21086810Y-10837429D01*
X21077286Y-10846952D01*
X21058238Y-10856476D01*
X21020143Y-10856476D01*
X21001095Y-10846952D01*
X21182048Y-10837429D02*
X21191571Y-10846952D01*
X21182048Y-10856476D01*
X21172524Y-10846952D01*
X21182048Y-10837429D01*
X21182048Y-10856476D01*
X21182048Y-10732667D02*
X21191571Y-10742190D01*
X21182048Y-10751714D01*
X21172524Y-10742190D01*
X21182048Y-10732667D01*
X21182048Y-10751714D01*
D12*
X19483000Y-11151000D02*
X19553000Y-11221000D01*
X19553000Y-11151000D02*
X19483000Y-11221000D01*
D11*
X19848714Y-11076476D02*
X19867762Y-11076476D01*
X19886810Y-11086000D01*
X19896333Y-11095524D01*
X19905857Y-11114571D01*
X19915381Y-11152667D01*
X19915381Y-11200286D01*
X19905857Y-11238381D01*
X19896333Y-11257428D01*
X19886810Y-11266952D01*
X19867762Y-11276476D01*
X19848714Y-11276476D01*
X19829667Y-11266952D01*
X19820143Y-11257428D01*
X19810619Y-11238381D01*
X19801095Y-11200286D01*
X19801095Y-11152667D01*
X19810619Y-11114571D01*
X19820143Y-11095524D01*
X19829667Y-11086000D01*
X19848714Y-11076476D01*
X20001095Y-11257428D02*
X20010619Y-11266952D01*
X20001095Y-11276476D01*
X19991571Y-11266952D01*
X20001095Y-11257428D01*
X20001095Y-11276476D01*
X20077286Y-11076476D02*
X20210619Y-11076476D01*
X20124905Y-11276476D01*
X20324905Y-11076476D02*
X20343952Y-11076476D01*
X20363000Y-11086000D01*
X20372524Y-11095524D01*
X20382048Y-11114571D01*
X20391571Y-11152667D01*
X20391571Y-11200286D01*
X20382048Y-11238381D01*
X20372524Y-11257428D01*
X20363000Y-11266952D01*
X20343952Y-11276476D01*
X20324905Y-11276476D01*
X20305857Y-11266952D01*
X20296333Y-11257428D01*
X20286810Y-11238381D01*
X20277286Y-11200286D01*
X20277286Y-11152667D01*
X20286810Y-11114571D01*
X20296333Y-11095524D01*
X20305857Y-11086000D01*
X20324905Y-11076476D01*
X20515381Y-11076476D02*
X20534429Y-11076476D01*
X20553476Y-11086000D01*
X20563000Y-11095524D01*
X20572524Y-11114571D01*
X20582048Y-11152667D01*
X20582048Y-11200286D01*
X20572524Y-11238381D01*
X20563000Y-11257428D01*
X20553476Y-11266952D01*
X20534429Y-11276476D01*
X20515381Y-11276476D01*
X20496333Y-11266952D01*
X20486810Y-11257428D01*
X20477286Y-11238381D01*
X20467762Y-11200286D01*
X20467762Y-11152667D01*
X20477286Y-11114571D01*
X20486810Y-11095524D01*
X20496333Y-11086000D01*
X20515381Y-11076476D01*
X20667762Y-11276476D02*
X20667762Y-11143143D01*
X20667762Y-11162190D02*
X20677286Y-11152667D01*
X20696333Y-11143143D01*
X20724905Y-11143143D01*
X20743952Y-11152667D01*
X20753476Y-11171714D01*
X20753476Y-11276476D01*
X20753476Y-11171714D02*
X20763000Y-11152667D01*
X20782048Y-11143143D01*
X20810619Y-11143143D01*
X20829667Y-11152667D01*
X20839190Y-11171714D01*
X20839190Y-11276476D01*
X20934429Y-11276476D02*
X20934429Y-11143143D01*
X20934429Y-11162190D02*
X20943952Y-11152667D01*
X20963000Y-11143143D01*
X20991571Y-11143143D01*
X21010619Y-11152667D01*
X21020143Y-11171714D01*
X21020143Y-11276476D01*
X21020143Y-11171714D02*
X21029667Y-11152667D01*
X21048714Y-11143143D01*
X21077286Y-11143143D01*
X21096333Y-11152667D01*
X21105857Y-11171714D01*
X21105857Y-11276476D01*
X21496333Y-11066952D02*
X21324905Y-11324095D01*
X21753476Y-11076476D02*
X21772524Y-11076476D01*
X21791571Y-11086000D01*
X21801095Y-11095524D01*
X21810619Y-11114571D01*
X21820143Y-11152667D01*
X21820143Y-11200286D01*
X21810619Y-11238381D01*
X21801095Y-11257428D01*
X21791571Y-11266952D01*
X21772524Y-11276476D01*
X21753476Y-11276476D01*
X21734429Y-11266952D01*
X21724905Y-11257428D01*
X21715381Y-11238381D01*
X21705857Y-11200286D01*
X21705857Y-11152667D01*
X21715381Y-11114571D01*
X21724905Y-11095524D01*
X21734429Y-11086000D01*
X21753476Y-11076476D01*
X21905857Y-11257428D02*
X21915381Y-11266952D01*
X21905857Y-11276476D01*
X21896333Y-11266952D01*
X21905857Y-11257428D01*
X21905857Y-11276476D01*
X22039190Y-11076476D02*
X22058238Y-11076476D01*
X22077286Y-11086000D01*
X22086810Y-11095524D01*
X22096333Y-11114571D01*
X22105857Y-11152667D01*
X22105857Y-11200286D01*
X22096333Y-11238381D01*
X22086810Y-11257428D01*
X22077286Y-11266952D01*
X22058238Y-11276476D01*
X22039190Y-11276476D01*
X22020143Y-11266952D01*
X22010619Y-11257428D01*
X22001095Y-11238381D01*
X21991571Y-11200286D01*
X21991571Y-11152667D01*
X22001095Y-11114571D01*
X22010619Y-11095524D01*
X22020143Y-11086000D01*
X22039190Y-11076476D01*
X22182048Y-11095524D02*
X22191571Y-11086000D01*
X22210619Y-11076476D01*
X22258238Y-11076476D01*
X22277286Y-11086000D01*
X22286810Y-11095524D01*
X22296333Y-11114571D01*
X22296333Y-11133619D01*
X22286810Y-11162190D01*
X22172524Y-11276476D01*
X22296333Y-11276476D01*
X22363000Y-11076476D02*
X22496333Y-11076476D01*
X22410619Y-11276476D01*
X22658238Y-11076476D02*
X22620143Y-11076476D01*
X22601095Y-11086000D01*
X22591571Y-11095524D01*
X22572524Y-11124095D01*
X22563000Y-11162190D01*
X22563000Y-11238381D01*
X22572524Y-11257428D01*
X22582048Y-11266952D01*
X22601095Y-11276476D01*
X22639190Y-11276476D01*
X22658238Y-11266952D01*
X22667762Y-11257428D01*
X22677286Y-11238381D01*
X22677286Y-11190762D01*
X22667762Y-11171714D01*
X22658238Y-11162190D01*
X22639190Y-11152667D01*
X22601095Y-11152667D01*
X22582048Y-11162190D01*
X22572524Y-11171714D01*
X22563000Y-11190762D01*
X22753476Y-11076476D02*
X22753476Y-11114571D01*
X22829667Y-11076476D02*
X22829667Y-11114571D01*
X23124905Y-11352667D02*
X23115381Y-11343143D01*
X23096333Y-11314571D01*
X23086809Y-11295524D01*
X23077286Y-11266952D01*
X23067762Y-11219333D01*
X23067762Y-11181238D01*
X23077286Y-11133619D01*
X23086809Y-11105048D01*
X23096333Y-11086000D01*
X23115381Y-11057429D01*
X23124905Y-11047905D01*
X23286809Y-11143143D02*
X23286809Y-11276476D01*
X23239190Y-11066952D02*
X23191571Y-11209809D01*
X23315381Y-11209809D01*
X23543952Y-11276476D02*
X23543952Y-11076476D01*
X23629667Y-11276476D02*
X23629667Y-11171714D01*
X23620143Y-11152667D01*
X23601095Y-11143143D01*
X23572524Y-11143143D01*
X23553476Y-11152667D01*
X23543952Y-11162190D01*
X23753476Y-11276476D02*
X23734428Y-11266952D01*
X23724905Y-11257428D01*
X23715381Y-11238381D01*
X23715381Y-11181238D01*
X23724905Y-11162190D01*
X23734428Y-11152667D01*
X23753476Y-11143143D01*
X23782048Y-11143143D01*
X23801095Y-11152667D01*
X23810619Y-11162190D01*
X23820143Y-11181238D01*
X23820143Y-11238381D01*
X23810619Y-11257428D01*
X23801095Y-11266952D01*
X23782048Y-11276476D01*
X23753476Y-11276476D01*
X23934428Y-11276476D02*
X23915381Y-11266952D01*
X23905857Y-11247905D01*
X23905857Y-11076476D01*
X24086809Y-11266952D02*
X24067762Y-11276476D01*
X24029667Y-11276476D01*
X24010619Y-11266952D01*
X24001095Y-11247905D01*
X24001095Y-11171714D01*
X24010619Y-11152667D01*
X24029667Y-11143143D01*
X24067762Y-11143143D01*
X24086809Y-11152667D01*
X24096333Y-11171714D01*
X24096333Y-11190762D01*
X24001095Y-11209809D01*
X24172524Y-11266952D02*
X24191571Y-11276476D01*
X24229667Y-11276476D01*
X24248714Y-11266952D01*
X24258238Y-11247905D01*
X24258238Y-11238381D01*
X24248714Y-11219333D01*
X24229667Y-11209809D01*
X24201095Y-11209809D01*
X24182048Y-11200286D01*
X24172524Y-11181238D01*
X24172524Y-11171714D01*
X24182048Y-11152667D01*
X24201095Y-11143143D01*
X24229667Y-11143143D01*
X24248714Y-11152667D01*
X24324905Y-11352667D02*
X24334428Y-11343143D01*
X24353476Y-11314571D01*
X24363000Y-11295524D01*
X24372524Y-11266952D01*
X24382048Y-11219333D01*
X24382048Y-11181238D01*
X24372524Y-11133619D01*
X24363000Y-11105048D01*
X24353476Y-11086000D01*
X24334428Y-11057429D01*
X24324905Y-11047905D01*
D13*
X19553000Y-11450000D02*
G75*
G03*
X19553000Y-11450000I-40000J0D01*
G01*
D11*
X19848714Y-11340476D02*
X19867762Y-11340476D01*
X19886810Y-11350000D01*
X19896333Y-11359524D01*
X19905857Y-11378571D01*
X19915381Y-11416667D01*
X19915381Y-11464286D01*
X19905857Y-11502381D01*
X19896333Y-11521428D01*
X19886810Y-11530952D01*
X19867762Y-11540476D01*
X19848714Y-11540476D01*
X19829667Y-11530952D01*
X19820143Y-11521428D01*
X19810619Y-11502381D01*
X19801095Y-11464286D01*
X19801095Y-11416667D01*
X19810619Y-11378571D01*
X19820143Y-11359524D01*
X19829667Y-11350000D01*
X19848714Y-11340476D01*
X20001095Y-11521428D02*
X20010619Y-11530952D01*
X20001095Y-11540476D01*
X19991571Y-11530952D01*
X20001095Y-11521428D01*
X20001095Y-11540476D01*
X20124905Y-11426190D02*
X20105857Y-11416667D01*
X20096333Y-11407143D01*
X20086810Y-11388095D01*
X20086810Y-11378571D01*
X20096333Y-11359524D01*
X20105857Y-11350000D01*
X20124905Y-11340476D01*
X20163000Y-11340476D01*
X20182048Y-11350000D01*
X20191571Y-11359524D01*
X20201095Y-11378571D01*
X20201095Y-11388095D01*
X20191571Y-11407143D01*
X20182048Y-11416667D01*
X20163000Y-11426190D01*
X20124905Y-11426190D01*
X20105857Y-11435714D01*
X20096333Y-11445238D01*
X20086810Y-11464286D01*
X20086810Y-11502381D01*
X20096333Y-11521428D01*
X20105857Y-11530952D01*
X20124905Y-11540476D01*
X20163000Y-11540476D01*
X20182048Y-11530952D01*
X20191571Y-11521428D01*
X20201095Y-11502381D01*
X20201095Y-11464286D01*
X20191571Y-11445238D01*
X20182048Y-11435714D01*
X20163000Y-11426190D01*
X20324905Y-11340476D02*
X20343952Y-11340476D01*
X20363000Y-11350000D01*
X20372524Y-11359524D01*
X20382048Y-11378571D01*
X20391571Y-11416667D01*
X20391571Y-11464286D01*
X20382048Y-11502381D01*
X20372524Y-11521428D01*
X20363000Y-11530952D01*
X20343952Y-11540476D01*
X20324905Y-11540476D01*
X20305857Y-11530952D01*
X20296333Y-11521428D01*
X20286810Y-11502381D01*
X20277286Y-11464286D01*
X20277286Y-11416667D01*
X20286810Y-11378571D01*
X20296333Y-11359524D01*
X20305857Y-11350000D01*
X20324905Y-11340476D01*
X20515381Y-11340476D02*
X20534429Y-11340476D01*
X20553476Y-11350000D01*
X20563000Y-11359524D01*
X20572524Y-11378571D01*
X20582048Y-11416667D01*
X20582048Y-11464286D01*
X20572524Y-11502381D01*
X20563000Y-11521428D01*
X20553476Y-11530952D01*
X20534429Y-11540476D01*
X20515381Y-11540476D01*
X20496333Y-11530952D01*
X20486810Y-11521428D01*
X20477286Y-11502381D01*
X20467762Y-11464286D01*
X20467762Y-11416667D01*
X20477286Y-11378571D01*
X20486810Y-11359524D01*
X20496333Y-11350000D01*
X20515381Y-11340476D01*
X20667762Y-11540476D02*
X20667762Y-11407143D01*
X20667762Y-11426190D02*
X20677286Y-11416667D01*
X20696333Y-11407143D01*
X20724905Y-11407143D01*
X20743952Y-11416667D01*
X20753476Y-11435714D01*
X20753476Y-11540476D01*
X20753476Y-11435714D02*
X20763000Y-11416667D01*
X20782048Y-11407143D01*
X20810619Y-11407143D01*
X20829667Y-11416667D01*
X20839190Y-11435714D01*
X20839190Y-11540476D01*
X20934429Y-11540476D02*
X20934429Y-11407143D01*
X20934429Y-11426190D02*
X20943952Y-11416667D01*
X20963000Y-11407143D01*
X20991571Y-11407143D01*
X21010619Y-11416667D01*
X21020143Y-11435714D01*
X21020143Y-11540476D01*
X21020143Y-11435714D02*
X21029667Y-11416667D01*
X21048714Y-11407143D01*
X21077286Y-11407143D01*
X21096333Y-11416667D01*
X21105857Y-11435714D01*
X21105857Y-11540476D01*
X21496333Y-11330952D02*
X21324905Y-11588095D01*
X21753476Y-11340476D02*
X21772524Y-11340476D01*
X21791571Y-11350000D01*
X21801095Y-11359524D01*
X21810619Y-11378571D01*
X21820143Y-11416667D01*
X21820143Y-11464286D01*
X21810619Y-11502381D01*
X21801095Y-11521428D01*
X21791571Y-11530952D01*
X21772524Y-11540476D01*
X21753476Y-11540476D01*
X21734429Y-11530952D01*
X21724905Y-11521428D01*
X21715381Y-11502381D01*
X21705857Y-11464286D01*
X21705857Y-11416667D01*
X21715381Y-11378571D01*
X21724905Y-11359524D01*
X21734429Y-11350000D01*
X21753476Y-11340476D01*
X21905857Y-11521428D02*
X21915381Y-11530952D01*
X21905857Y-11540476D01*
X21896333Y-11530952D01*
X21905857Y-11521428D01*
X21905857Y-11540476D01*
X22039190Y-11340476D02*
X22058238Y-11340476D01*
X22077286Y-11350000D01*
X22086810Y-11359524D01*
X22096333Y-11378571D01*
X22105857Y-11416667D01*
X22105857Y-11464286D01*
X22096333Y-11502381D01*
X22086810Y-11521428D01*
X22077286Y-11530952D01*
X22058238Y-11540476D01*
X22039190Y-11540476D01*
X22020143Y-11530952D01*
X22010619Y-11521428D01*
X22001095Y-11502381D01*
X21991571Y-11464286D01*
X21991571Y-11416667D01*
X22001095Y-11378571D01*
X22010619Y-11359524D01*
X22020143Y-11350000D01*
X22039190Y-11340476D01*
X22172524Y-11340476D02*
X22296333Y-11340476D01*
X22229667Y-11416667D01*
X22258238Y-11416667D01*
X22277286Y-11426190D01*
X22286810Y-11435714D01*
X22296333Y-11454762D01*
X22296333Y-11502381D01*
X22286810Y-11521428D01*
X22277286Y-11530952D01*
X22258238Y-11540476D01*
X22201095Y-11540476D01*
X22182048Y-11530952D01*
X22172524Y-11521428D01*
X22486809Y-11540476D02*
X22372524Y-11540476D01*
X22429667Y-11540476D02*
X22429667Y-11340476D01*
X22410619Y-11369048D01*
X22391571Y-11388095D01*
X22372524Y-11397619D01*
X22667762Y-11340476D02*
X22572524Y-11340476D01*
X22563000Y-11435714D01*
X22572524Y-11426190D01*
X22591571Y-11416667D01*
X22639190Y-11416667D01*
X22658238Y-11426190D01*
X22667762Y-11435714D01*
X22677286Y-11454762D01*
X22677286Y-11502381D01*
X22667762Y-11521428D01*
X22658238Y-11530952D01*
X22639190Y-11540476D01*
X22591571Y-11540476D01*
X22572524Y-11530952D01*
X22563000Y-11521428D01*
X22753476Y-11340476D02*
X22753476Y-11378571D01*
X22829667Y-11340476D02*
X22829667Y-11378571D01*
X23124905Y-11616667D02*
X23115381Y-11607143D01*
X23096333Y-11578571D01*
X23086809Y-11559524D01*
X23077286Y-11530952D01*
X23067762Y-11483333D01*
X23067762Y-11445238D01*
X23077286Y-11397619D01*
X23086809Y-11369048D01*
X23096333Y-11350000D01*
X23115381Y-11321428D01*
X23124905Y-11311905D01*
X23229667Y-11426190D02*
X23210619Y-11416667D01*
X23201095Y-11407143D01*
X23191571Y-11388095D01*
X23191571Y-11378571D01*
X23201095Y-11359524D01*
X23210619Y-11350000D01*
X23229667Y-11340476D01*
X23267762Y-11340476D01*
X23286809Y-11350000D01*
X23296333Y-11359524D01*
X23305857Y-11378571D01*
X23305857Y-11388095D01*
X23296333Y-11407143D01*
X23286809Y-11416667D01*
X23267762Y-11426190D01*
X23229667Y-11426190D01*
X23210619Y-11435714D01*
X23201095Y-11445238D01*
X23191571Y-11464286D01*
X23191571Y-11502381D01*
X23201095Y-11521428D01*
X23210619Y-11530952D01*
X23229667Y-11540476D01*
X23267762Y-11540476D01*
X23286809Y-11530952D01*
X23296333Y-11521428D01*
X23305857Y-11502381D01*
X23305857Y-11464286D01*
X23296333Y-11445238D01*
X23286809Y-11435714D01*
X23267762Y-11426190D01*
X23543952Y-11540476D02*
X23543952Y-11340476D01*
X23629667Y-11540476D02*
X23629667Y-11435714D01*
X23620143Y-11416667D01*
X23601095Y-11407143D01*
X23572524Y-11407143D01*
X23553476Y-11416667D01*
X23543952Y-11426190D01*
X23753476Y-11540476D02*
X23734428Y-11530952D01*
X23724905Y-11521428D01*
X23715381Y-11502381D01*
X23715381Y-11445238D01*
X23724905Y-11426190D01*
X23734428Y-11416667D01*
X23753476Y-11407143D01*
X23782048Y-11407143D01*
X23801095Y-11416667D01*
X23810619Y-11426190D01*
X23820143Y-11445238D01*
X23820143Y-11502381D01*
X23810619Y-11521428D01*
X23801095Y-11530952D01*
X23782048Y-11540476D01*
X23753476Y-11540476D01*
X23934428Y-11540476D02*
X23915381Y-11530952D01*
X23905857Y-11511905D01*
X23905857Y-11340476D01*
X24086809Y-11530952D02*
X24067762Y-11540476D01*
X24029667Y-11540476D01*
X24010619Y-11530952D01*
X24001095Y-11511905D01*
X24001095Y-11435714D01*
X24010619Y-11416667D01*
X24029667Y-11407143D01*
X24067762Y-11407143D01*
X24086809Y-11416667D01*
X24096333Y-11435714D01*
X24096333Y-11454762D01*
X24001095Y-11473809D01*
X24172524Y-11530952D02*
X24191571Y-11540476D01*
X24229667Y-11540476D01*
X24248714Y-11530952D01*
X24258238Y-11511905D01*
X24258238Y-11502381D01*
X24248714Y-11483333D01*
X24229667Y-11473809D01*
X24201095Y-11473809D01*
X24182048Y-11464286D01*
X24172524Y-11445238D01*
X24172524Y-11435714D01*
X24182048Y-11416667D01*
X24201095Y-11407143D01*
X24229667Y-11407143D01*
X24248714Y-11416667D01*
X24324905Y-11616667D02*
X24334428Y-11607143D01*
X24353476Y-11578571D01*
X24363000Y-11559524D01*
X24372524Y-11530952D01*
X24382048Y-11483333D01*
X24382048Y-11445238D01*
X24372524Y-11397619D01*
X24363000Y-11369048D01*
X24353476Y-11350000D01*
X24334428Y-11321428D01*
X24324905Y-11311905D01*
D14*
X19503000Y-11664000D02*
X19503000Y-11764000D01*
X19453000Y-11714000D02*
X19553000Y-11714000D01*
D11*
X19915381Y-11804476D02*
X19801095Y-11804476D01*
X19858238Y-11804476D02*
X19858238Y-11604476D01*
X19839190Y-11633048D01*
X19820143Y-11652095D01*
X19801095Y-11661619D01*
X20001095Y-11785428D02*
X20010619Y-11794952D01*
X20001095Y-11804476D01*
X19991571Y-11794952D01*
X20001095Y-11785428D01*
X20001095Y-11804476D01*
X20134429Y-11604476D02*
X20153476Y-11604476D01*
X20172524Y-11614000D01*
X20182048Y-11623524D01*
X20191571Y-11642571D01*
X20201095Y-11680667D01*
X20201095Y-11728286D01*
X20191571Y-11766381D01*
X20182048Y-11785428D01*
X20172524Y-11794952D01*
X20153476Y-11804476D01*
X20134429Y-11804476D01*
X20115381Y-11794952D01*
X20105857Y-11785428D01*
X20096333Y-11766381D01*
X20086810Y-11728286D01*
X20086810Y-11680667D01*
X20096333Y-11642571D01*
X20105857Y-11623524D01*
X20115381Y-11614000D01*
X20134429Y-11604476D01*
X20324905Y-11604476D02*
X20343952Y-11604476D01*
X20363000Y-11614000D01*
X20372524Y-11623524D01*
X20382048Y-11642571D01*
X20391571Y-11680667D01*
X20391571Y-11728286D01*
X20382048Y-11766381D01*
X20372524Y-11785428D01*
X20363000Y-11794952D01*
X20343952Y-11804476D01*
X20324905Y-11804476D01*
X20305857Y-11794952D01*
X20296333Y-11785428D01*
X20286810Y-11766381D01*
X20277286Y-11728286D01*
X20277286Y-11680667D01*
X20286810Y-11642571D01*
X20296333Y-11623524D01*
X20305857Y-11614000D01*
X20324905Y-11604476D01*
X20515381Y-11604476D02*
X20534429Y-11604476D01*
X20553476Y-11614000D01*
X20563000Y-11623524D01*
X20572524Y-11642571D01*
X20582048Y-11680667D01*
X20582048Y-11728286D01*
X20572524Y-11766381D01*
X20563000Y-11785428D01*
X20553476Y-11794952D01*
X20534429Y-11804476D01*
X20515381Y-11804476D01*
X20496333Y-11794952D01*
X20486810Y-11785428D01*
X20477286Y-11766381D01*
X20467762Y-11728286D01*
X20467762Y-11680667D01*
X20477286Y-11642571D01*
X20486810Y-11623524D01*
X20496333Y-11614000D01*
X20515381Y-11604476D01*
X20667762Y-11804476D02*
X20667762Y-11671143D01*
X20667762Y-11690190D02*
X20677286Y-11680667D01*
X20696333Y-11671143D01*
X20724905Y-11671143D01*
X20743952Y-11680667D01*
X20753476Y-11699714D01*
X20753476Y-11804476D01*
X20753476Y-11699714D02*
X20763000Y-11680667D01*
X20782048Y-11671143D01*
X20810619Y-11671143D01*
X20829667Y-11680667D01*
X20839190Y-11699714D01*
X20839190Y-11804476D01*
X20934429Y-11804476D02*
X20934429Y-11671143D01*
X20934429Y-11690190D02*
X20943952Y-11680667D01*
X20963000Y-11671143D01*
X20991571Y-11671143D01*
X21010619Y-11680667D01*
X21020143Y-11699714D01*
X21020143Y-11804476D01*
X21020143Y-11699714D02*
X21029667Y-11680667D01*
X21048714Y-11671143D01*
X21077286Y-11671143D01*
X21096333Y-11680667D01*
X21105857Y-11699714D01*
X21105857Y-11804476D01*
X21496333Y-11594952D02*
X21324905Y-11852095D01*
X21753476Y-11604476D02*
X21772524Y-11604476D01*
X21791571Y-11614000D01*
X21801095Y-11623524D01*
X21810619Y-11642571D01*
X21820143Y-11680667D01*
X21820143Y-11728286D01*
X21810619Y-11766381D01*
X21801095Y-11785428D01*
X21791571Y-11794952D01*
X21772524Y-11804476D01*
X21753476Y-11804476D01*
X21734429Y-11794952D01*
X21724905Y-11785428D01*
X21715381Y-11766381D01*
X21705857Y-11728286D01*
X21705857Y-11680667D01*
X21715381Y-11642571D01*
X21724905Y-11623524D01*
X21734429Y-11614000D01*
X21753476Y-11604476D01*
X21905857Y-11785428D02*
X21915381Y-11794952D01*
X21905857Y-11804476D01*
X21896333Y-11794952D01*
X21905857Y-11785428D01*
X21905857Y-11804476D01*
X22039190Y-11604476D02*
X22058238Y-11604476D01*
X22077286Y-11614000D01*
X22086810Y-11623524D01*
X22096333Y-11642571D01*
X22105857Y-11680667D01*
X22105857Y-11728286D01*
X22096333Y-11766381D01*
X22086810Y-11785428D01*
X22077286Y-11794952D01*
X22058238Y-11804476D01*
X22039190Y-11804476D01*
X22020143Y-11794952D01*
X22010619Y-11785428D01*
X22001095Y-11766381D01*
X21991571Y-11728286D01*
X21991571Y-11680667D01*
X22001095Y-11642571D01*
X22010619Y-11623524D01*
X22020143Y-11614000D01*
X22039190Y-11604476D01*
X22172524Y-11604476D02*
X22296333Y-11604476D01*
X22229667Y-11680667D01*
X22258238Y-11680667D01*
X22277286Y-11690190D01*
X22286810Y-11699714D01*
X22296333Y-11718762D01*
X22296333Y-11766381D01*
X22286810Y-11785428D01*
X22277286Y-11794952D01*
X22258238Y-11804476D01*
X22201095Y-11804476D01*
X22182048Y-11794952D01*
X22172524Y-11785428D01*
X22391571Y-11804476D02*
X22429667Y-11804476D01*
X22448714Y-11794952D01*
X22458238Y-11785428D01*
X22477286Y-11756857D01*
X22486809Y-11718762D01*
X22486809Y-11642571D01*
X22477286Y-11623524D01*
X22467762Y-11614000D01*
X22448714Y-11604476D01*
X22410619Y-11604476D01*
X22391571Y-11614000D01*
X22382048Y-11623524D01*
X22372524Y-11642571D01*
X22372524Y-11690190D01*
X22382048Y-11709238D01*
X22391571Y-11718762D01*
X22410619Y-11728286D01*
X22448714Y-11728286D01*
X22467762Y-11718762D01*
X22477286Y-11709238D01*
X22486809Y-11690190D01*
X22658238Y-11671143D02*
X22658238Y-11804476D01*
X22610619Y-11594952D02*
X22563000Y-11737809D01*
X22686809Y-11737809D01*
X22753476Y-11604476D02*
X22753476Y-11642571D01*
X22829667Y-11604476D02*
X22829667Y-11642571D01*
X23124905Y-11880667D02*
X23115381Y-11871143D01*
X23096333Y-11842571D01*
X23086809Y-11823524D01*
X23077286Y-11794952D01*
X23067762Y-11747333D01*
X23067762Y-11709238D01*
X23077286Y-11661619D01*
X23086809Y-11633048D01*
X23096333Y-11614000D01*
X23115381Y-11585428D01*
X23124905Y-11575905D01*
X23286809Y-11671143D02*
X23286809Y-11804476D01*
X23239190Y-11594952D02*
X23191571Y-11737809D01*
X23315381Y-11737809D01*
X23496333Y-11804476D02*
X23382048Y-11804476D01*
X23439190Y-11804476D02*
X23439190Y-11604476D01*
X23420143Y-11633048D01*
X23401095Y-11652095D01*
X23382048Y-11661619D01*
X23734428Y-11804476D02*
X23734428Y-11604476D01*
X23820143Y-11804476D02*
X23820143Y-11699714D01*
X23810619Y-11680667D01*
X23791571Y-11671143D01*
X23763000Y-11671143D01*
X23743952Y-11680667D01*
X23734428Y-11690190D01*
X23943952Y-11804476D02*
X23924905Y-11794952D01*
X23915381Y-11785428D01*
X23905857Y-11766381D01*
X23905857Y-11709238D01*
X23915381Y-11690190D01*
X23924905Y-11680667D01*
X23943952Y-11671143D01*
X23972524Y-11671143D01*
X23991571Y-11680667D01*
X24001095Y-11690190D01*
X24010619Y-11709238D01*
X24010619Y-11766381D01*
X24001095Y-11785428D01*
X23991571Y-11794952D01*
X23972524Y-11804476D01*
X23943952Y-11804476D01*
X24124905Y-11804476D02*
X24105857Y-11794952D01*
X24096333Y-11775905D01*
X24096333Y-11604476D01*
X24277286Y-11794952D02*
X24258238Y-11804476D01*
X24220143Y-11804476D01*
X24201095Y-11794952D01*
X24191571Y-11775905D01*
X24191571Y-11699714D01*
X24201095Y-11680667D01*
X24220143Y-11671143D01*
X24258238Y-11671143D01*
X24277286Y-11680667D01*
X24286809Y-11699714D01*
X24286809Y-11718762D01*
X24191571Y-11737809D01*
X24363000Y-11794952D02*
X24382048Y-11804476D01*
X24420143Y-11804476D01*
X24439190Y-11794952D01*
X24448714Y-11775905D01*
X24448714Y-11766381D01*
X24439190Y-11747333D01*
X24420143Y-11737809D01*
X24391571Y-11737809D01*
X24372524Y-11728286D01*
X24363000Y-11709238D01*
X24363000Y-11699714D01*
X24372524Y-11680667D01*
X24391571Y-11671143D01*
X24420143Y-11671143D01*
X24439190Y-11680667D01*
X24515381Y-11880667D02*
X24524905Y-11871143D01*
X24543952Y-11842571D01*
X24553476Y-11823524D01*
X24563000Y-11794952D01*
X24572524Y-11747333D01*
X24572524Y-11709238D01*
X24563000Y-11661619D01*
X24553476Y-11633048D01*
X24543952Y-11614000D01*
X24524905Y-11585428D01*
X24515381Y-11575905D01*
D15*
X19536891Y-12016891D02*
X19536891Y-11939109D01*
X19459109Y-11939109D01*
X19459109Y-12016891D01*
X19536891Y-12016891D01*
D11*
X19915381Y-12068476D02*
X19801095Y-12068476D01*
X19858238Y-12068476D02*
X19858238Y-11868476D01*
X19839190Y-11897048D01*
X19820143Y-11916095D01*
X19801095Y-11925619D01*
X20001095Y-12049428D02*
X20010619Y-12058952D01*
X20001095Y-12068476D01*
X19991571Y-12058952D01*
X20001095Y-12049428D01*
X20001095Y-12068476D01*
X20201095Y-12068476D02*
X20086810Y-12068476D01*
X20143952Y-12068476D02*
X20143952Y-11868476D01*
X20124905Y-11897048D01*
X20105857Y-11916095D01*
X20086810Y-11925619D01*
X20324905Y-11868476D02*
X20343952Y-11868476D01*
X20363000Y-11878000D01*
X20372524Y-11887524D01*
X20382048Y-11906571D01*
X20391571Y-11944667D01*
X20391571Y-11992286D01*
X20382048Y-12030381D01*
X20372524Y-12049428D01*
X20363000Y-12058952D01*
X20343952Y-12068476D01*
X20324905Y-12068476D01*
X20305857Y-12058952D01*
X20296333Y-12049428D01*
X20286810Y-12030381D01*
X20277286Y-11992286D01*
X20277286Y-11944667D01*
X20286810Y-11906571D01*
X20296333Y-11887524D01*
X20305857Y-11878000D01*
X20324905Y-11868476D01*
X20515381Y-11868476D02*
X20534429Y-11868476D01*
X20553476Y-11878000D01*
X20563000Y-11887524D01*
X20572524Y-11906571D01*
X20582048Y-11944667D01*
X20582048Y-11992286D01*
X20572524Y-12030381D01*
X20563000Y-12049428D01*
X20553476Y-12058952D01*
X20534429Y-12068476D01*
X20515381Y-12068476D01*
X20496333Y-12058952D01*
X20486810Y-12049428D01*
X20477286Y-12030381D01*
X20467762Y-11992286D01*
X20467762Y-11944667D01*
X20477286Y-11906571D01*
X20486810Y-11887524D01*
X20496333Y-11878000D01*
X20515381Y-11868476D01*
X20667762Y-12068476D02*
X20667762Y-11935143D01*
X20667762Y-11954190D02*
X20677286Y-11944667D01*
X20696333Y-11935143D01*
X20724905Y-11935143D01*
X20743952Y-11944667D01*
X20753476Y-11963714D01*
X20753476Y-12068476D01*
X20753476Y-11963714D02*
X20763000Y-11944667D01*
X20782048Y-11935143D01*
X20810619Y-11935143D01*
X20829667Y-11944667D01*
X20839190Y-11963714D01*
X20839190Y-12068476D01*
X20934429Y-12068476D02*
X20934429Y-11935143D01*
X20934429Y-11954190D02*
X20943952Y-11944667D01*
X20963000Y-11935143D01*
X20991571Y-11935143D01*
X21010619Y-11944667D01*
X21020143Y-11963714D01*
X21020143Y-12068476D01*
X21020143Y-11963714D02*
X21029667Y-11944667D01*
X21048714Y-11935143D01*
X21077286Y-11935143D01*
X21096333Y-11944667D01*
X21105857Y-11963714D01*
X21105857Y-12068476D01*
X21496333Y-11858952D02*
X21324905Y-12116095D01*
X21753476Y-11868476D02*
X21772524Y-11868476D01*
X21791571Y-11878000D01*
X21801095Y-11887524D01*
X21810619Y-11906571D01*
X21820143Y-11944667D01*
X21820143Y-11992286D01*
X21810619Y-12030381D01*
X21801095Y-12049428D01*
X21791571Y-12058952D01*
X21772524Y-12068476D01*
X21753476Y-12068476D01*
X21734429Y-12058952D01*
X21724905Y-12049428D01*
X21715381Y-12030381D01*
X21705857Y-11992286D01*
X21705857Y-11944667D01*
X21715381Y-11906571D01*
X21724905Y-11887524D01*
X21734429Y-11878000D01*
X21753476Y-11868476D01*
X21905857Y-12049428D02*
X21915381Y-12058952D01*
X21905857Y-12068476D01*
X21896333Y-12058952D01*
X21905857Y-12049428D01*
X21905857Y-12068476D01*
X22039190Y-11868476D02*
X22058238Y-11868476D01*
X22077286Y-11878000D01*
X22086810Y-11887524D01*
X22096333Y-11906571D01*
X22105857Y-11944667D01*
X22105857Y-11992286D01*
X22096333Y-12030381D01*
X22086810Y-12049428D01*
X22077286Y-12058952D01*
X22058238Y-12068476D01*
X22039190Y-12068476D01*
X22020143Y-12058952D01*
X22010619Y-12049428D01*
X22001095Y-12030381D01*
X21991571Y-11992286D01*
X21991571Y-11944667D01*
X22001095Y-11906571D01*
X22010619Y-11887524D01*
X22020143Y-11878000D01*
X22039190Y-11868476D01*
X22277286Y-11935143D02*
X22277286Y-12068476D01*
X22229667Y-11858952D02*
X22182048Y-12001809D01*
X22305857Y-12001809D01*
X22363000Y-11868476D02*
X22486809Y-11868476D01*
X22420143Y-11944667D01*
X22448714Y-11944667D01*
X22467762Y-11954190D01*
X22477286Y-11963714D01*
X22486809Y-11982762D01*
X22486809Y-12030381D01*
X22477286Y-12049428D01*
X22467762Y-12058952D01*
X22448714Y-12068476D01*
X22391571Y-12068476D01*
X22372524Y-12058952D01*
X22363000Y-12049428D01*
X22553476Y-11868476D02*
X22677286Y-11868476D01*
X22610619Y-11944667D01*
X22639190Y-11944667D01*
X22658238Y-11954190D01*
X22667762Y-11963714D01*
X22677286Y-11982762D01*
X22677286Y-12030381D01*
X22667762Y-12049428D01*
X22658238Y-12058952D01*
X22639190Y-12068476D01*
X22582048Y-12068476D01*
X22563000Y-12058952D01*
X22553476Y-12049428D01*
X22753476Y-11868476D02*
X22753476Y-11906571D01*
X22829667Y-11868476D02*
X22829667Y-11906571D01*
X23124905Y-12144667D02*
X23115381Y-12135143D01*
X23096333Y-12106571D01*
X23086809Y-12087524D01*
X23077286Y-12058952D01*
X23067762Y-12011333D01*
X23067762Y-11973238D01*
X23077286Y-11925619D01*
X23086809Y-11897048D01*
X23096333Y-11878000D01*
X23115381Y-11849428D01*
X23124905Y-11839905D01*
X23191571Y-11887524D02*
X23201095Y-11878000D01*
X23220143Y-11868476D01*
X23267762Y-11868476D01*
X23286809Y-11878000D01*
X23296333Y-11887524D01*
X23305857Y-11906571D01*
X23305857Y-11925619D01*
X23296333Y-11954190D01*
X23182048Y-12068476D01*
X23305857Y-12068476D01*
X23543952Y-12068476D02*
X23543952Y-11868476D01*
X23629667Y-12068476D02*
X23629667Y-11963714D01*
X23620143Y-11944667D01*
X23601095Y-11935143D01*
X23572524Y-11935143D01*
X23553476Y-11944667D01*
X23543952Y-11954190D01*
X23753476Y-12068476D02*
X23734428Y-12058952D01*
X23724905Y-12049428D01*
X23715381Y-12030381D01*
X23715381Y-11973238D01*
X23724905Y-11954190D01*
X23734428Y-11944667D01*
X23753476Y-11935143D01*
X23782048Y-11935143D01*
X23801095Y-11944667D01*
X23810619Y-11954190D01*
X23820143Y-11973238D01*
X23820143Y-12030381D01*
X23810619Y-12049428D01*
X23801095Y-12058952D01*
X23782048Y-12068476D01*
X23753476Y-12068476D01*
X23934428Y-12068476D02*
X23915381Y-12058952D01*
X23905857Y-12039905D01*
X23905857Y-11868476D01*
X24086809Y-12058952D02*
X24067762Y-12068476D01*
X24029667Y-12068476D01*
X24010619Y-12058952D01*
X24001095Y-12039905D01*
X24001095Y-11963714D01*
X24010619Y-11944667D01*
X24029667Y-11935143D01*
X24067762Y-11935143D01*
X24086809Y-11944667D01*
X24096333Y-11963714D01*
X24096333Y-11982762D01*
X24001095Y-12001809D01*
X24172524Y-12058952D02*
X24191571Y-12068476D01*
X24229667Y-12068476D01*
X24248714Y-12058952D01*
X24258238Y-12039905D01*
X24258238Y-12030381D01*
X24248714Y-12011333D01*
X24229667Y-12001809D01*
X24201095Y-12001809D01*
X24182048Y-11992286D01*
X24172524Y-11973238D01*
X24172524Y-11963714D01*
X24182048Y-11944667D01*
X24201095Y-11935143D01*
X24229667Y-11935143D01*
X24248714Y-11944667D01*
X24324905Y-12144667D02*
X24334428Y-12135143D01*
X24353476Y-12106571D01*
X24363000Y-12087524D01*
X24372524Y-12058952D01*
X24382048Y-12011333D01*
X24382048Y-11973238D01*
X24372524Y-11925619D01*
X24363000Y-11897048D01*
X24353476Y-11878000D01*
X24334428Y-11849428D01*
X24324905Y-11839905D01*
D16*
X19478000Y-12317000D02*
X19553000Y-12242000D01*
X19478000Y-12167000D01*
X19403000Y-12242000D01*
X19478000Y-12317000D01*
D11*
X19915381Y-12332476D02*
X19801095Y-12332476D01*
X19858238Y-12332476D02*
X19858238Y-12132476D01*
X19839190Y-12161048D01*
X19820143Y-12180095D01*
X19801095Y-12189619D01*
X20001095Y-12313428D02*
X20010619Y-12322952D01*
X20001095Y-12332476D01*
X19991571Y-12322952D01*
X20001095Y-12313428D01*
X20001095Y-12332476D01*
X20191571Y-12132476D02*
X20096333Y-12132476D01*
X20086810Y-12227714D01*
X20096333Y-12218190D01*
X20115381Y-12208667D01*
X20163000Y-12208667D01*
X20182048Y-12218190D01*
X20191571Y-12227714D01*
X20201095Y-12246762D01*
X20201095Y-12294381D01*
X20191571Y-12313428D01*
X20182048Y-12322952D01*
X20163000Y-12332476D01*
X20115381Y-12332476D01*
X20096333Y-12322952D01*
X20086810Y-12313428D01*
X20324905Y-12132476D02*
X20343952Y-12132476D01*
X20363000Y-12142000D01*
X20372524Y-12151524D01*
X20382048Y-12170571D01*
X20391571Y-12208667D01*
X20391571Y-12256286D01*
X20382048Y-12294381D01*
X20372524Y-12313428D01*
X20363000Y-12322952D01*
X20343952Y-12332476D01*
X20324905Y-12332476D01*
X20305857Y-12322952D01*
X20296333Y-12313428D01*
X20286810Y-12294381D01*
X20277286Y-12256286D01*
X20277286Y-12208667D01*
X20286810Y-12170571D01*
X20296333Y-12151524D01*
X20305857Y-12142000D01*
X20324905Y-12132476D01*
X20515381Y-12132476D02*
X20534429Y-12132476D01*
X20553476Y-12142000D01*
X20563000Y-12151524D01*
X20572524Y-12170571D01*
X20582048Y-12208667D01*
X20582048Y-12256286D01*
X20572524Y-12294381D01*
X20563000Y-12313428D01*
X20553476Y-12322952D01*
X20534429Y-12332476D01*
X20515381Y-12332476D01*
X20496333Y-12322952D01*
X20486810Y-12313428D01*
X20477286Y-12294381D01*
X20467762Y-12256286D01*
X20467762Y-12208667D01*
X20477286Y-12170571D01*
X20486810Y-12151524D01*
X20496333Y-12142000D01*
X20515381Y-12132476D01*
X20667762Y-12332476D02*
X20667762Y-12199143D01*
X20667762Y-12218190D02*
X20677286Y-12208667D01*
X20696333Y-12199143D01*
X20724905Y-12199143D01*
X20743952Y-12208667D01*
X20753476Y-12227714D01*
X20753476Y-12332476D01*
X20753476Y-12227714D02*
X20763000Y-12208667D01*
X20782048Y-12199143D01*
X20810619Y-12199143D01*
X20829667Y-12208667D01*
X20839190Y-12227714D01*
X20839190Y-12332476D01*
X20934429Y-12332476D02*
X20934429Y-12199143D01*
X20934429Y-12218190D02*
X20943952Y-12208667D01*
X20963000Y-12199143D01*
X20991571Y-12199143D01*
X21010619Y-12208667D01*
X21020143Y-12227714D01*
X21020143Y-12332476D01*
X21020143Y-12227714D02*
X21029667Y-12208667D01*
X21048714Y-12199143D01*
X21077286Y-12199143D01*
X21096333Y-12208667D01*
X21105857Y-12227714D01*
X21105857Y-12332476D01*
X21496333Y-12122952D02*
X21324905Y-12380095D01*
X21753476Y-12132476D02*
X21772524Y-12132476D01*
X21791571Y-12142000D01*
X21801095Y-12151524D01*
X21810619Y-12170571D01*
X21820143Y-12208667D01*
X21820143Y-12256286D01*
X21810619Y-12294381D01*
X21801095Y-12313428D01*
X21791571Y-12322952D01*
X21772524Y-12332476D01*
X21753476Y-12332476D01*
X21734429Y-12322952D01*
X21724905Y-12313428D01*
X21715381Y-12294381D01*
X21705857Y-12256286D01*
X21705857Y-12208667D01*
X21715381Y-12170571D01*
X21724905Y-12151524D01*
X21734429Y-12142000D01*
X21753476Y-12132476D01*
X21905857Y-12313428D02*
X21915381Y-12322952D01*
X21905857Y-12332476D01*
X21896333Y-12322952D01*
X21905857Y-12313428D01*
X21905857Y-12332476D01*
X22039190Y-12132476D02*
X22058238Y-12132476D01*
X22077286Y-12142000D01*
X22086810Y-12151524D01*
X22096333Y-12170571D01*
X22105857Y-12208667D01*
X22105857Y-12256286D01*
X22096333Y-12294381D01*
X22086810Y-12313428D01*
X22077286Y-12322952D01*
X22058238Y-12332476D01*
X22039190Y-12332476D01*
X22020143Y-12322952D01*
X22010619Y-12313428D01*
X22001095Y-12294381D01*
X21991571Y-12256286D01*
X21991571Y-12208667D01*
X22001095Y-12170571D01*
X22010619Y-12151524D01*
X22020143Y-12142000D01*
X22039190Y-12132476D01*
X22286810Y-12132476D02*
X22191571Y-12132476D01*
X22182048Y-12227714D01*
X22191571Y-12218190D01*
X22210619Y-12208667D01*
X22258238Y-12208667D01*
X22277286Y-12218190D01*
X22286810Y-12227714D01*
X22296333Y-12246762D01*
X22296333Y-12294381D01*
X22286810Y-12313428D01*
X22277286Y-12322952D01*
X22258238Y-12332476D01*
X22210619Y-12332476D01*
X22191571Y-12322952D01*
X22182048Y-12313428D01*
X22391571Y-12332476D02*
X22429667Y-12332476D01*
X22448714Y-12322952D01*
X22458238Y-12313428D01*
X22477286Y-12284857D01*
X22486809Y-12246762D01*
X22486809Y-12170571D01*
X22477286Y-12151524D01*
X22467762Y-12142000D01*
X22448714Y-12132476D01*
X22410619Y-12132476D01*
X22391571Y-12142000D01*
X22382048Y-12151524D01*
X22372524Y-12170571D01*
X22372524Y-12218190D01*
X22382048Y-12237238D01*
X22391571Y-12246762D01*
X22410619Y-12256286D01*
X22448714Y-12256286D01*
X22467762Y-12246762D01*
X22477286Y-12237238D01*
X22486809Y-12218190D01*
X22677286Y-12332476D02*
X22563000Y-12332476D01*
X22620143Y-12332476D02*
X22620143Y-12132476D01*
X22601095Y-12161048D01*
X22582048Y-12180095D01*
X22563000Y-12189619D01*
X22753476Y-12132476D02*
X22753476Y-12170571D01*
X22829667Y-12132476D02*
X22829667Y-12170571D01*
X23124905Y-12408667D02*
X23115381Y-12399143D01*
X23096333Y-12370571D01*
X23086809Y-12351524D01*
X23077286Y-12322952D01*
X23067762Y-12275333D01*
X23067762Y-12237238D01*
X23077286Y-12189619D01*
X23086809Y-12161048D01*
X23096333Y-12142000D01*
X23115381Y-12113428D01*
X23124905Y-12103905D01*
X23286809Y-12199143D02*
X23286809Y-12332476D01*
X23239190Y-12122952D02*
X23191571Y-12265809D01*
X23315381Y-12265809D01*
X23543952Y-12332476D02*
X23543952Y-12132476D01*
X23629667Y-12332476D02*
X23629667Y-12227714D01*
X23620143Y-12208667D01*
X23601095Y-12199143D01*
X23572524Y-12199143D01*
X23553476Y-12208667D01*
X23543952Y-12218190D01*
X23753476Y-12332476D02*
X23734428Y-12322952D01*
X23724905Y-12313428D01*
X23715381Y-12294381D01*
X23715381Y-12237238D01*
X23724905Y-12218190D01*
X23734428Y-12208667D01*
X23753476Y-12199143D01*
X23782048Y-12199143D01*
X23801095Y-12208667D01*
X23810619Y-12218190D01*
X23820143Y-12237238D01*
X23820143Y-12294381D01*
X23810619Y-12313428D01*
X23801095Y-12322952D01*
X23782048Y-12332476D01*
X23753476Y-12332476D01*
X23934428Y-12332476D02*
X23915381Y-12322952D01*
X23905857Y-12303905D01*
X23905857Y-12132476D01*
X24086809Y-12322952D02*
X24067762Y-12332476D01*
X24029667Y-12332476D01*
X24010619Y-12322952D01*
X24001095Y-12303905D01*
X24001095Y-12227714D01*
X24010619Y-12208667D01*
X24029667Y-12199143D01*
X24067762Y-12199143D01*
X24086809Y-12208667D01*
X24096333Y-12227714D01*
X24096333Y-12246762D01*
X24001095Y-12265809D01*
X24172524Y-12322952D02*
X24191571Y-12332476D01*
X24229667Y-12332476D01*
X24248714Y-12322952D01*
X24258238Y-12303905D01*
X24258238Y-12294381D01*
X24248714Y-12275333D01*
X24229667Y-12265809D01*
X24201095Y-12265809D01*
X24182048Y-12256286D01*
X24172524Y-12237238D01*
X24172524Y-12227714D01*
X24182048Y-12208667D01*
X24201095Y-12199143D01*
X24229667Y-12199143D01*
X24248714Y-12208667D01*
X24324905Y-12408667D02*
X24334428Y-12399143D01*
X24353476Y-12370571D01*
X24363000Y-12351524D01*
X24372524Y-12322952D01*
X24382048Y-12275333D01*
X24382048Y-12237238D01*
X24372524Y-12189619D01*
X24363000Y-12161048D01*
X24353476Y-12142000D01*
X24334428Y-12113428D01*
X24324905Y-12103905D01*
X19353000Y-12412000D02*
X19553000Y-12612000D01*
X19553000Y-12412000D02*
X19353000Y-12612000D01*
X19553000Y-12512000D02*
G75*
G03*
X19553000Y-12512000I-100000J0D01*
G01*
X19791571Y-12402476D02*
X19915381Y-12402476D01*
X19848714Y-12478667D01*
X19877286Y-12478667D01*
X19896333Y-12488190D01*
X19905857Y-12497714D01*
X19915381Y-12516762D01*
X19915381Y-12564381D01*
X19905857Y-12583428D01*
X19896333Y-12592952D01*
X19877286Y-12602476D01*
X19820143Y-12602476D01*
X19801095Y-12592952D01*
X19791571Y-12583428D01*
X20001095Y-12583428D02*
X20010619Y-12592952D01*
X20001095Y-12602476D01*
X19991571Y-12592952D01*
X20001095Y-12583428D01*
X20001095Y-12602476D01*
X20191571Y-12402476D02*
X20096333Y-12402476D01*
X20086810Y-12497714D01*
X20096333Y-12488190D01*
X20115381Y-12478667D01*
X20163000Y-12478667D01*
X20182048Y-12488190D01*
X20191571Y-12497714D01*
X20201095Y-12516762D01*
X20201095Y-12564381D01*
X20191571Y-12583428D01*
X20182048Y-12592952D01*
X20163000Y-12602476D01*
X20115381Y-12602476D01*
X20096333Y-12592952D01*
X20086810Y-12583428D01*
X20324905Y-12402476D02*
X20343952Y-12402476D01*
X20363000Y-12412000D01*
X20372524Y-12421524D01*
X20382048Y-12440571D01*
X20391571Y-12478667D01*
X20391571Y-12526286D01*
X20382048Y-12564381D01*
X20372524Y-12583428D01*
X20363000Y-12592952D01*
X20343952Y-12602476D01*
X20324905Y-12602476D01*
X20305857Y-12592952D01*
X20296333Y-12583428D01*
X20286810Y-12564381D01*
X20277286Y-12526286D01*
X20277286Y-12478667D01*
X20286810Y-12440571D01*
X20296333Y-12421524D01*
X20305857Y-12412000D01*
X20324905Y-12402476D01*
X20515381Y-12402476D02*
X20534429Y-12402476D01*
X20553476Y-12412000D01*
X20563000Y-12421524D01*
X20572524Y-12440571D01*
X20582048Y-12478667D01*
X20582048Y-12526286D01*
X20572524Y-12564381D01*
X20563000Y-12583428D01*
X20553476Y-12592952D01*
X20534429Y-12602476D01*
X20515381Y-12602476D01*
X20496333Y-12592952D01*
X20486810Y-12583428D01*
X20477286Y-12564381D01*
X20467762Y-12526286D01*
X20467762Y-12478667D01*
X20477286Y-12440571D01*
X20486810Y-12421524D01*
X20496333Y-12412000D01*
X20515381Y-12402476D01*
X20667762Y-12602476D02*
X20667762Y-12469143D01*
X20667762Y-12488190D02*
X20677286Y-12478667D01*
X20696333Y-12469143D01*
X20724905Y-12469143D01*
X20743952Y-12478667D01*
X20753476Y-12497714D01*
X20753476Y-12602476D01*
X20753476Y-12497714D02*
X20763000Y-12478667D01*
X20782048Y-12469143D01*
X20810619Y-12469143D01*
X20829667Y-12478667D01*
X20839190Y-12497714D01*
X20839190Y-12602476D01*
X20934429Y-12602476D02*
X20934429Y-12469143D01*
X20934429Y-12488190D02*
X20943952Y-12478667D01*
X20963000Y-12469143D01*
X20991571Y-12469143D01*
X21010619Y-12478667D01*
X21020143Y-12497714D01*
X21020143Y-12602476D01*
X21020143Y-12497714D02*
X21029667Y-12478667D01*
X21048714Y-12469143D01*
X21077286Y-12469143D01*
X21096333Y-12478667D01*
X21105857Y-12497714D01*
X21105857Y-12602476D01*
X21496333Y-12392952D02*
X21324905Y-12650095D01*
X21753476Y-12402476D02*
X21772524Y-12402476D01*
X21791571Y-12412000D01*
X21801095Y-12421524D01*
X21810619Y-12440571D01*
X21820143Y-12478667D01*
X21820143Y-12526286D01*
X21810619Y-12564381D01*
X21801095Y-12583428D01*
X21791571Y-12592952D01*
X21772524Y-12602476D01*
X21753476Y-12602476D01*
X21734429Y-12592952D01*
X21724905Y-12583428D01*
X21715381Y-12564381D01*
X21705857Y-12526286D01*
X21705857Y-12478667D01*
X21715381Y-12440571D01*
X21724905Y-12421524D01*
X21734429Y-12412000D01*
X21753476Y-12402476D01*
X21905857Y-12583428D02*
X21915381Y-12592952D01*
X21905857Y-12602476D01*
X21896333Y-12592952D01*
X21905857Y-12583428D01*
X21905857Y-12602476D01*
X22105857Y-12602476D02*
X21991571Y-12602476D01*
X22048714Y-12602476D02*
X22048714Y-12402476D01*
X22029667Y-12431048D01*
X22010619Y-12450095D01*
X21991571Y-12459619D01*
X22172524Y-12402476D02*
X22296333Y-12402476D01*
X22229667Y-12478667D01*
X22258238Y-12478667D01*
X22277286Y-12488190D01*
X22286810Y-12497714D01*
X22296333Y-12516762D01*
X22296333Y-12564381D01*
X22286810Y-12583428D01*
X22277286Y-12592952D01*
X22258238Y-12602476D01*
X22201095Y-12602476D01*
X22182048Y-12592952D01*
X22172524Y-12583428D01*
X22363000Y-12402476D02*
X22496333Y-12402476D01*
X22410619Y-12602476D01*
X22601095Y-12488190D02*
X22582048Y-12478667D01*
X22572524Y-12469143D01*
X22563000Y-12450095D01*
X22563000Y-12440571D01*
X22572524Y-12421524D01*
X22582048Y-12412000D01*
X22601095Y-12402476D01*
X22639190Y-12402476D01*
X22658238Y-12412000D01*
X22667762Y-12421524D01*
X22677286Y-12440571D01*
X22677286Y-12450095D01*
X22667762Y-12469143D01*
X22658238Y-12478667D01*
X22639190Y-12488190D01*
X22601095Y-12488190D01*
X22582048Y-12497714D01*
X22572524Y-12507238D01*
X22563000Y-12526286D01*
X22563000Y-12564381D01*
X22572524Y-12583428D01*
X22582048Y-12592952D01*
X22601095Y-12602476D01*
X22639190Y-12602476D01*
X22658238Y-12592952D01*
X22667762Y-12583428D01*
X22677286Y-12564381D01*
X22677286Y-12526286D01*
X22667762Y-12507238D01*
X22658238Y-12497714D01*
X22639190Y-12488190D01*
X22753476Y-12402476D02*
X22753476Y-12440571D01*
X22829667Y-12402476D02*
X22829667Y-12440571D01*
X23124905Y-12678667D02*
X23115381Y-12669143D01*
X23096333Y-12640571D01*
X23086809Y-12621524D01*
X23077286Y-12592952D01*
X23067762Y-12545333D01*
X23067762Y-12507238D01*
X23077286Y-12459619D01*
X23086809Y-12431048D01*
X23096333Y-12412000D01*
X23115381Y-12383428D01*
X23124905Y-12373905D01*
X23305857Y-12602476D02*
X23191571Y-12602476D01*
X23248714Y-12602476D02*
X23248714Y-12402476D01*
X23229667Y-12431048D01*
X23210619Y-12450095D01*
X23191571Y-12459619D01*
X23543952Y-12602476D02*
X23543952Y-12402476D01*
X23629667Y-12602476D02*
X23629667Y-12497714D01*
X23620143Y-12478667D01*
X23601095Y-12469143D01*
X23572524Y-12469143D01*
X23553476Y-12478667D01*
X23543952Y-12488190D01*
X23753476Y-12602476D02*
X23734428Y-12592952D01*
X23724905Y-12583428D01*
X23715381Y-12564381D01*
X23715381Y-12507238D01*
X23724905Y-12488190D01*
X23734428Y-12478667D01*
X23753476Y-12469143D01*
X23782048Y-12469143D01*
X23801095Y-12478667D01*
X23810619Y-12488190D01*
X23820143Y-12507238D01*
X23820143Y-12564381D01*
X23810619Y-12583428D01*
X23801095Y-12592952D01*
X23782048Y-12602476D01*
X23753476Y-12602476D01*
X23934428Y-12602476D02*
X23915381Y-12592952D01*
X23905857Y-12573905D01*
X23905857Y-12402476D01*
X24086809Y-12592952D02*
X24067762Y-12602476D01*
X24029667Y-12602476D01*
X24010619Y-12592952D01*
X24001095Y-12573905D01*
X24001095Y-12497714D01*
X24010619Y-12478667D01*
X24029667Y-12469143D01*
X24067762Y-12469143D01*
X24086809Y-12478667D01*
X24096333Y-12497714D01*
X24096333Y-12516762D01*
X24001095Y-12535809D01*
X24163000Y-12678667D02*
X24172524Y-12669143D01*
X24191571Y-12640571D01*
X24201095Y-12621524D01*
X24210619Y-12592952D01*
X24220143Y-12545333D01*
X24220143Y-12507238D01*
X24210619Y-12459619D01*
X24201095Y-12431048D01*
X24191571Y-12412000D01*
X24172524Y-12383428D01*
X24163000Y-12373905D01*
X24524905Y-12678667D02*
X24515381Y-12669143D01*
X24496333Y-12640571D01*
X24486809Y-12621524D01*
X24477286Y-12592952D01*
X24467762Y-12545333D01*
X24467762Y-12507238D01*
X24477286Y-12459619D01*
X24486809Y-12431048D01*
X24496333Y-12412000D01*
X24515381Y-12383428D01*
X24524905Y-12373905D01*
X24601095Y-12469143D02*
X24601095Y-12602476D01*
X24601095Y-12488190D02*
X24610619Y-12478667D01*
X24629667Y-12469143D01*
X24658238Y-12469143D01*
X24677286Y-12478667D01*
X24686809Y-12497714D01*
X24686809Y-12602476D01*
X24810619Y-12602476D02*
X24791571Y-12592952D01*
X24782048Y-12583428D01*
X24772524Y-12564381D01*
X24772524Y-12507238D01*
X24782048Y-12488190D01*
X24791571Y-12478667D01*
X24810619Y-12469143D01*
X24839190Y-12469143D01*
X24858238Y-12478667D01*
X24867762Y-12488190D01*
X24877286Y-12507238D01*
X24877286Y-12564381D01*
X24867762Y-12583428D01*
X24858238Y-12592952D01*
X24839190Y-12602476D01*
X24810619Y-12602476D01*
X24934428Y-12469143D02*
X25010619Y-12469143D01*
X24963000Y-12402476D02*
X24963000Y-12573905D01*
X24972524Y-12592952D01*
X24991571Y-12602476D01*
X25010619Y-12602476D01*
X25229667Y-12469143D02*
X25229667Y-12669143D01*
X25229667Y-12478667D02*
X25248714Y-12469143D01*
X25286809Y-12469143D01*
X25305857Y-12478667D01*
X25315381Y-12488190D01*
X25324905Y-12507238D01*
X25324905Y-12564381D01*
X25315381Y-12583428D01*
X25305857Y-12592952D01*
X25286809Y-12602476D01*
X25248714Y-12602476D01*
X25229667Y-12592952D01*
X25439190Y-12602476D02*
X25420143Y-12592952D01*
X25410619Y-12573905D01*
X25410619Y-12402476D01*
X25601095Y-12602476D02*
X25601095Y-12497714D01*
X25591571Y-12478667D01*
X25572524Y-12469143D01*
X25534428Y-12469143D01*
X25515381Y-12478667D01*
X25601095Y-12592952D02*
X25582048Y-12602476D01*
X25534428Y-12602476D01*
X25515381Y-12592952D01*
X25505857Y-12573905D01*
X25505857Y-12554857D01*
X25515381Y-12535809D01*
X25534428Y-12526286D01*
X25582048Y-12526286D01*
X25601095Y-12516762D01*
X25667762Y-12469143D02*
X25743952Y-12469143D01*
X25696333Y-12402476D02*
X25696333Y-12573905D01*
X25705857Y-12592952D01*
X25724905Y-12602476D01*
X25743952Y-12602476D01*
X25886809Y-12592952D02*
X25867762Y-12602476D01*
X25829667Y-12602476D01*
X25810619Y-12592952D01*
X25801095Y-12573905D01*
X25801095Y-12497714D01*
X25810619Y-12478667D01*
X25829667Y-12469143D01*
X25867762Y-12469143D01*
X25886809Y-12478667D01*
X25896333Y-12497714D01*
X25896333Y-12516762D01*
X25801095Y-12535809D01*
X26067762Y-12602476D02*
X26067762Y-12402476D01*
X26067762Y-12592952D02*
X26048714Y-12602476D01*
X26010619Y-12602476D01*
X25991571Y-12592952D01*
X25982048Y-12583428D01*
X25972524Y-12564381D01*
X25972524Y-12507238D01*
X25982048Y-12488190D01*
X25991571Y-12478667D01*
X26010619Y-12469143D01*
X26048714Y-12469143D01*
X26067762Y-12478667D01*
X26143952Y-12678667D02*
X26153476Y-12669143D01*
X26172524Y-12640571D01*
X26182048Y-12621524D01*
X26191571Y-12592952D01*
X26201095Y-12545333D01*
X26201095Y-12507238D01*
X26191571Y-12459619D01*
X26182048Y-12431048D01*
X26172524Y-12412000D01*
X26153476Y-12383428D01*
X26143952Y-12373905D01*
M02*
