M48
METRIC
T1C0.700
T2C0.800
T3C1.000
T4C1.100
T5C1.500
T6C3.500
%
G90
G05
T1
X205.74Y-78.74
X215.9Y-60.325
X222.25Y-83.82
X240.665Y-88.9
T2
X217.17Y-64.77
X217.17Y-86.995
X222.17Y-86.995
X227.33Y-64.77
X242.57Y-71.12
X242.57Y-81.28
X246.38Y-81.32
X246.38Y-86.32
T3
X206.125Y-54.356
X208.665Y-54.356
X211.205Y-54.356
X213.745Y-54.356
X215.265Y-102.616
X216.285Y-54.356
X217.17Y-91.612
X217.17Y-96.612
X217.805Y-102.616
X218.825Y-54.356
X220.345Y-102.616
X221.365Y-54.356
X222.885Y-102.616
X223.905Y-54.356
X225.425Y-102.616
X226.445Y-54.356
X227.965Y-102.616
X228.985Y-54.356
X230.505Y-102.616
X233.045Y-54.356
X233.045Y-102.616
X235.585Y-54.356
X237.15Y-59.69
X237.15Y-62.23
X237.15Y-64.77
X238.125Y-54.356
X238.125Y-102.616
X240.665Y-54.356
X240.665Y-102.616
X243.205Y-54.356
X243.205Y-102.616
X245.745Y-54.356
X245.745Y-102.616
X248.285Y-54.356
X248.285Y-102.616
X250.825Y-54.356
X250.825Y-102.616
X251.445Y-71.095
X251.445Y-73.635
X251.445Y-76.175
X251.445Y-78.715
T4
X217.17Y-72.39
X227.33Y-72.39
T5
X203.2Y-66.04
X203.2Y-71.12
X203.2Y-83.82
X203.2Y-88.9
T6
X253.81Y-62.23
T0
M30
